<svg width="512" height="512" viewBox="0 0 512 512" fill="none" xmlns="http://www.w3.org/2000/svg">
<g clip-path="url(#clip0_73_134)">
<rect width="512" height="512" rx="128" fill="white"/>
<rect width="512" height="512" fill="black"/>
<path d="M77.68 347.5V209.728H100.9L103.222 245.332H100.9C102.62 233.292 106.232 224.348 111.736 218.5C117.412 212.652 125.41 209.728 135.73 209.728H165.916V235.27H137.536C131 235.27 125.582 236.474 121.282 238.882C116.982 241.29 113.714 244.816 111.478 249.46C109.242 254.104 108.124 259.952 108.124 267.004V347.5H77.68ZM43.624 347.5V322.732H150.694V347.5H43.624ZM43.624 234.496V209.728H95.482V234.496H43.624ZM385.272 347.5V204.31C385.272 190.894 388.54 180.918 395.076 174.382C401.612 167.674 411.76 164.32 425.52 164.32H470.67V189.088H430.938C425.778 189.088 421.994 190.464 419.586 193.216C417.178 195.796 415.974 199.58 415.974 204.568V347.5H385.272ZM349.926 234.496V209.728H469.122V234.496H349.926Z" fill="white"/>
<path d="M249.407 347.5V209.728H279.851V347.5H249.407ZM196.775 347.5V322.732H324.743V347.5H196.775ZM199.355 234.496V209.728H275.465V234.496H199.355ZM248.117 191.41V162.514H279.077V191.41H248.117Z" fill="white"/>
<path d="M249.407 347.5V209.728H279.851V347.5H249.407ZM196.775 347.5V322.732H324.743V347.5H196.775ZM199.355 234.496V209.728H275.465V234.496H199.355ZM248.117 191.41V162.514H279.077V191.41H248.117Z" fill="#FB2C36"/>
<rect x="240.55" y="462.211" width="30.9004" height="49.7889" fill="#FB2C36"/>
<rect x="240.55" y="0.00012207" width="30.9004" height="49.7889" fill="#FB2C36"/>
</g>
<defs>
<clipPath id="clip0_73_134">
<rect width="512" height="512" rx="128" fill="white"/>
</clipPath>
</defs>
</svg>
